<?xml version="1.0" encoding="UTF-8"?>
<svg width="1200pt" height="1200pt" version="1.1" viewBox="0 0 1200 1200" xmlns="http://www.w3.org/2000/svg">
 <defs>
  <clipPath id="a">
   <path d="m222.14 222.14h755.71v755.71h-755.71z"/>
  </clipPath>
 </defs>
 <rect width="1200" height="1200" fill="#222"/>
 <path d="m599.96 479.33-97.953 97.887 40.91 40.883 48.977-48.945v0.003906c4.457-4.4531 11.676-4.4531 16.133 0l48.977 48.945 40.91-40.883z" fill="#fff"/>
 <path d="m394.6 502.14-23.797 23.777 23.797 23.781 23.797-23.781z" fill="#fff"/>
 <path d="m805.31 502.14-23.797 23.777 23.797 23.781 23.797-23.781z" fill="#fff"/>
 <path d="m354.67 542.04-84.359 84.301c3.3242 40.973 14.266 80.969 32.266 117.93l167.16-167.05-35.207-35.18-31.863 31.844c-4.4531 4.4492-11.676 4.4492-16.133 0z" fill="#fff"/>
 <path d="m765.38 542.04-35.207 35.18 167.07 166.96h-0.003906c18-36.961 28.941-76.953 32.266-117.93l-84.273-84.215-31.863 31.844h0.003906c-4.457 4.4492-11.68 4.4492-16.133 0z" fill="#fff"/>
 <path d="m485.87 593.34-172.02 171.9c28.992 50.215 70.688 91.934 120.9 120.96 50.219 29.031 107.19 44.355 165.2 44.438 58.02-0.054687 115-15.359 165.24-44.375 50.23-29.016 91.945-70.723 120.96-120.94l-172.11-171.99-48.977 48.945c-4.457 4.4531-11.676 4.4531-16.133 0l-48.977-48.945-48.977 48.945c-4.457 4.4531-11.676 4.4531-16.133 0z" fill="#fff"/>
 <g clip-path="url(#a)">
  <path d="m600 222.14c-208.54 0-377.86 169.31-377.86 377.86s169.31 377.86 377.86 377.86c208.55 0 377.86-169.31 377.86-377.86 0-208.55-169.31-377.86-377.86-377.86zm0 23.617c195.78 0 354.24 158.46 354.24 354.24s-158.46 354.24-354.24 354.24-354.24-158.46-354.24-354.24 158.46-354.24 354.24-354.24z" fill="#fff"/>
 </g>
</svg>
